# xmcd CD database file
#
# Track frame offsets:
#	150
#	15300
#	33348
#	50011
#	66511
#	79322
#	92828
#	108933
#	126095
#	145015
#	158765
#	176177
#	195242
#	229669
#	246526
#	265844
#	280905
#	298375
#	324360
#	338395
#
# Disc length: 4738 seconds
#
# Revision: 0
# Processed by: cddbd v1.5.1PL0 Copyright (c) Steve Scherf et al.
# Submitted via: CDex 1.51
#
DISCID=1f128014
DTITLE=Various Artist - Dancing Energy - 8th Stage-
DYEAR=1900
DGENRE=Dance
TTITLE0=Sing a song -short mix- [CAPTAIN JACK]
TTITLE1=Abracadabra [Tiggy]
TTITLE2=Mamma Mia -Mamma Mary's Radio Mix- [Abbacadabra]
TTITLE3=MY SHARONA [DJ MIKO]
TTITLE4=TOGETHER FOREVER -Rei 'SP' Mix - [Rick Astley]
TTITLE5=the loco-motion -REI 'SP' Mix - [Kylie Minogue]
TTITLE6=IN MY DREAMS (UK Mix) [REBECCA]
TTITLE7=ONE MORE TIME [REAL McCOY]
TTITLE8=YOU ARE THE ONE -BACK TO THE 70's - [GALECIA]
TTITLE9=Be My lOVER [DAZE]
TTITLE10=SHOW ME HEAVEN [CHIMIRA]
TTITLE11=makea love [CHAKRA]
TTITLE12=LOVE PAIN [OBSESSION]
TTITLE13=PER TE [PAOLA&CHIARA]
TTITLE14=TE A MO -Spanish Version - [NICKI FREANCE]
TTITLE15=SATURDAY NIGHT '97 [WHIGFIELD]
TTITLE16=PRAY FOR LOVE (L.T.I. CLASSIC PARADISE RADIO MIX) [LOVE TO INFINITY]
TTITLE17=WINGS OF FIRE (EXTENDED VRS) [JEE BEE]
TTITLE18=DIAMONDS ARE FOREVER [SOLID BASE]
TTITLE19=X-FILE [The Blue Men]
EXTD=
EXTT0=
EXTT1=
EXTT2=
EXTT3=
EXTT4=
EXTT5=
EXTT6=
EXTT7=
EXTT8=
EXTT9=
EXTT10=
EXTT11=
EXTT12=
EXTT13=
EXTT14=
EXTT15=
EXTT16=
EXTT17=
EXTT18=
EXTT19=
PLAYORDER=
